<?xml version="1.0" encoding="UTF-8" standalone="no"?>
<!DOCTYPE svg PUBLIC "-//W3C//DTD SVG 1.1//EN" "http://www.w3.org/Graphics/SVG/1.1/DTD/svg11.dtd">
<svg width="100%" height="100%" viewBox="0 0 1920 1080" version="1.1" xmlns="http://www.w3.org/2000/svg" xmlns:xlink="http://www.w3.org/1999/xlink" xml:space="preserve" xmlns:serif="http://www.serif.com/" style="fill-rule:evenodd;clip-rule:evenodd;stroke-linejoin:round;stroke-miterlimit:2;">
    <g transform="matrix(1.00502,0,0,1.02526,-9.91441,-28.0439)">
        <rect x="-3.31" y="-3.724" width="1977.2" height="1113.93" style="fill:rgb(30,30,33);"/>
    </g>
    <g id="Infinity-Symbol.svg" transform="matrix(0.38619,0,0,0.367395,960,539.172)">
        <g transform="matrix(1,0,0,1,-1351.61,-636.304)">
            <g>
                <g>
                    <path d="M72.373,651.52C62.109,212.429 541.276,-95.972 961.842,145.033C1100.39,224.43 1218.01,342.021 1344.47,470.451C1350.22,476.29 1352.88,475.687 1358.26,470.263C1556.07,270.861 1842.48,-33.191 2243.66,85.106C2412.49,134.89 2529.81,244.427 2589.91,409.483C2791.07,961.896 2214.04,1419.25 1719.22,1116.07C1594.42,1039.61 1486.64,934.093 1359.24,804.345C1352.44,797.418 1349.37,798.399 1343.15,804.669C1198.41,950.625 1042.62,1109.28 850.177,1175.69C458.575,1310.85 83.17,1077.49 72.373,651.52ZM317.418,643.008C329.903,896.647 525.008,1014.89 732.886,969.926C912.539,931.069 1063.25,773.066 1191.61,641.115C1195.93,636.669 1193.51,634.864 1190.54,632.09C1079.05,528.024 970.17,400.906 832.954,335.49C567.01,208.705 316.523,394.639 317.418,643.008ZM2385.26,632.288C2377.36,387.164 2183.98,253.585 1961.13,305.855C1785.8,346.981 1635.97,504.236 1511.49,632.134C1507.17,636.571 1508.83,638.643 1512.37,641.945C1668.01,787.19 1851.67,1016.51 2099.81,974.717C2265.1,946.877 2385.63,802.91 2385.26,632.288Z" style="fill:rgb(229,229,229);fill-rule:nonzero;"/>
                </g>
            </g>
        </g>
        <g>
        </g>
    </g>
</svg>
